# xmcd
#
# Track frame offsets:
#	150
#	16500
#	34465
#	52572
#	68015
#	86180
#	100777
#	116172
#	135717
#	151267
#	168070
#	184420
#	202382
#	220492
#	235935
#	254100
#	268697
#	284090
#	303637
#	319185
#
# Disc length: 4478 seconds
#
# Revision: 1
# Processed by: cddbd v1.5.1PL0 Copyright (c) Steve Scherf et al.
# Submitted via: audiograbber 1.82.02
#
DISCID=2f117c14
DTITLE=Various Artist - Top Hits Monthly 0204 Country
DYEAR=1900
DGENRE=Karaoke
TTITLE0=Tommy Shane Minor W - Vocals - What if she's an angel W - Vocals
TTITLE1=Kenny Chesney W - Vocals - Young W - Vocals
TTITLE2=Carolyn Dawn Johnson W - Vocals - I don't want you to go W - Vocals
TTITLE3=Unknown W - Vocals - God, Family and Country W - Vocals
TTITLE4=Shane Stockton W - Vocals - That's just Jessie W - Vocals
TTITLE5=Chely Wright W - Vocals - Jezebel W - Vocals
TTITLE6=Ty Herndon W - Vocals - Heather's Wall W - Vocals
TTITLE7=Travis Tritt W - Vocals - Modern day Bonnie and Clyde W - Vocals
TTITLE8=Toby Keith W - Vocals - My list W - Vocals
TTITLE9=Ray Stevens W - Vocals - Osama yo mama W - Vocals
TTITLE10=Tommy Shane Minor - What if she's an angel
TTITLE11=Kenny Chesney - Young
TTITLE12=Carolyn Dawn Johnson - I don't want you to go
TTITLE13=Unknown - God, Family and Country
TTITLE14=Shane Stockton - That's just Jessie
TTITLE15=Chely Wright - Jezebel
TTITLE16=Ty Herndon - Heather's Wall
TTITLE17=Travis Tritt - Modern day Bonnie and Clyde
TTITLE18=Toby Keith - My list
TTITLE19=Ray Stevens - Osama yo mama
EXTD=
EXTT0=
EXTT1=
EXTT2=
EXTT3=
EXTT4=
EXTT5=
EXTT6=
EXTT7=
EXTT8=
EXTT9=
EXTT10=
EXTT11=
EXTT12=
EXTT13=
EXTT14=
EXTT15=
EXTT16=
EXTT17=
EXTT18=
EXTT19=
PLAYORDER=
